<svg xmlns="http://www.w3.org/2000/svg" viewBox="0 0 100 100" fill="none">
  <defs>
    <!-- Premium Gold Gradient -->
    <linearGradient id="gold-grad" x1="0%" y1="0%" x2="100%" y2="100%">
      <stop offset="0%" stop-color="#f3e5ab" />
      <stop offset="50%" stop-color="#d4af37" />
      <stop offset="100%" stop-color="#aa8c2c" />
    </linearGradient>
  </defs>

  <!-- Outer Ring with Segmented Luxury Cuts -->
  <circle cx="50" cy="50" r="44" stroke="url(#gold-grad)" stroke-width="3" stroke-dasharray="280 20" stroke-linecap="round" />
  
  <!-- Inner Elegant Shield Motif -->
  <path d="M50 16 L78 30 V56 C78 74 66 84 50 88 C34 84 22 74 22 56 V30 Z" stroke="url(#gold-grad)" stroke-width="1.5" stroke-linejoin="round" fill="rgba(212, 175, 55, 0.05)" />

  <!-- Premium Crown/Star above Logo Letter -->
  <path d="M50 25 L53 31 L60 32 L55 36 L56 43 L50 39 L44 43 L45 36 L40 32 L47 31 Z" fill="url(#gold-grad)" />

  <!-- Elegant Letter 'B' with Modern Cuts -->
  <path d="M42 42 H54 C58 42 61 44 61 48.5 C61 51 59 53 56 54 C60 55 62 57.5 62 61 C62 66 58 68 53 68 H42 V42 Z" fill="url(#gold-grad)" />
  <!-- Inner cuts for B -->
  <path d="M46 45 V52 H53.5 C55 52 57 51 57 48.5 C57 46 55 45 53.5 45 H46 Z" fill="#001026" />
  <path d="M46 55 V65 H53 C55 65 57.5 64 57.5 60 C57.5 56 55 55 53 55 H46 Z" fill="#001026" />
</svg>